/* XPM */
static char *result[] = {
/* columns rows colors chars-per-pixel */
"50 50 171 2 ",
"   c #5E3835",
".  c #56707E",
"X  c #757C7E",
"o  c #787B7E",
"O  c #75767C",
"+  c #8E5F52",
"@  c #856859",
"#  c #886756",
"$  c #926356",
"%  c #976B54",
"&  c #956C5B",
"*  c #986F5D",
"=  c #976757",
"-  c #8F785B",
";  c #96715D",
":  c #AA7F53",
">  c #946F60",
",  c #997A61",
"<  c #A17662",
"1  c #A67965",
"2  c #3BAF5E",
"3  c #6F804D",
"4  c #779258",
"5  c #4BAE58",
"6  c #55A953",
"7  c #5DAA56",
"8  c #54AD5C",
"9  c #5CAD5C",
"0  c #52A750",
"q  c #6DA75B",
"w  c #65AC5B",
"e  c #6AAC5C",
"r  c #7BAA56",
"t  c #72AD5E",
"y  c #78A958",
"u  c #74AB57",
"i  c #66B25E",
"p  c #6CB25E",
"a  c #70B45E",
"s  c #728E7F",
"d  c #79807D",
"f  c #78967A",
"g  c #7A9978",
"h  c #57B360",
"j  c #6BA761",
"k  c #74AF63",
"l  c #6DB560",
"z  c #6EBA62",
"x  c #74B462",
"c  c #7CB267",
"v  c #73BB63",
"b  c #7FB36B",
"n  c #7FA072",
"m  c #76C267",
"M  c #DB9E3D",
"N  c #FB9E24",
"B  c #EC9D37",
"V  c #EC9C3A",
"C  c #E79D3B",
"Z  c #F49C35",
"A  c #F99A33",
"S  c #F09D38",
"D  c #E6A33C",
"F  c #ECA23C",
"G  c #FFA237",
"H  c #FBA339",
"J  c #FFA93B",
"K  c #F5A028",
"L  c #82985C",
"P  c #8AAB55",
"I  c #92A852",
"U  c #9BA750",
"Y  c #89BA58",
"T  c #96BE5C",
"R  c #9ABE5B",
"E  c #92BF55",
"W  c #AEA84E",
"Q  c #A7A64D",
"!  c #B6A44A",
"~  c #BAA44A",
"^  c #BCA146",
"/  c #A6A650",
"(  c #A7BB57",
")  c #A4BB59",
"_  c #ADB955",
"`  c #BAB552",
"'  c #B4B452",
"]  c #9F8D6C",
"[  c #82817B",
"{  c #BB8D67",
"}  c #A98871",
"|  c #AF9C79",
" . c #B29B7A",
".. c #8BAF67",
"X. c #88AA6C",
"o. c #88B267",
"O. c #93BB60",
"+. c #81A272",
"@. c #A4B77C",
"#. c #BABB7B",
"$. c #DE9746",
"%. c #DA944B",
"&. c #D19451",
"*. c #EA9A40",
"=. c #CEA143",
"-. c #C3A748",
";. c #D4A444",
":. c #DAA542",
">. c #D5A844",
",. c #C3B14D",
"<. c #CDB94F",
"1. c #D8BA50",
"2. c #8FC25E",
"3. c #9BC557",
"4. c #96C05C",
"5. c #99C25C",
"6. c #90C155",
"7. c #9EC961",
"8. c #9DC760",
"9. c #A2CE63",
"0. c #A0C365",
"q. c #AFC770",
"w. c #AFC67E",
"e. c #5C6E8C",
"r. c #47788C",
"t. c #5D7684",
"y. c #657C86",
"u. c #647C8A",
"i. c #687E8B",
"p. c #677A85",
"a. c #6A8284",
"s. c #6F8795",
"d. c #778893",
"f. c #BBA286",
"g. c #A5BF80",
"h. c #8697A1",
"j. c #D4AB8F",
"k. c #D6AD91",
"l. c #DAB496",
"z. c #DCB698",
"x. c #DDB899",
"c. c #D5BF99",
"v. c #E0B79C",
"b. c #AAC284",
"n. c #B2C58A",
"m. c #C0CD83",
"M. c #C8CC97",
"N. c #D6D598",
"B. c #DDCAA2",
"V. c #E4C6A3",
"C. c #E7CAA7",
"Z. c #F1CFAC",
"A. c #E9DBAC",
"S. c #E8D2A9",
"D. c #EDDCB0",
"F. c #F5DEB4",
"G. c #F9DFB7",
"H. c #FADFB8",
"J. c #F9E0B7",
"K. c #FCE2BA",
"L. c #F5E0B5",
"P. c #B5BDC3",
"I. c #CDD5DA",
"U. c #CFD8DA",
"Y. c #D1D7DA",
"T. c #D2D9DC",
"R. c #FFE6C0",
"E. c #FFE9C0",
"W. c #D6DDE0",
"Q. c #E4EBEE",
"!. c None",
/* pixels */
"!.!.!.!.!.!.!.!.!.!.!.!.!.!.!.!.!.!.!.!.!.!.!.!.!.!.!.!.!.!.!.!.!.!.!.!.!.!.!.!.!.!.!.!.!.!.!.!.!.!.",
"!.!.!.!.!.!.!.!.!.!.!.!.!.!.!.!.!.!.!.!.!.!.!.!.!.!.!.!.!.!.!.!.!.!.!.!.!.!.!.!.!.!.!.!.!.!.!.!.!.!.",
"!.!.!.!.1 < < !.!.!.!.!.!.!.!.!.!.!.!.!.T T 5.5.9.9.7.4.R 4.!.!.!.!.!.!.!.!.!.!.!.!.!.< < 1 !.!.!.!.",
"!.!.!.!.& & & !.!.!.!.!.!.!.!.!.!.!.!.4.8.9.5.T 5.4.R 5.7.8.4.!.!.!.!.!.!.!.!.!.!.!.!.& & & !.!.!.!.",
"!.!.!.!.* & & !.!.!.!.!.!.!.!.!.!.!.5.8.4.4.4.5.4.T 5.4.T 4.8.4.!.!.!.!.!.!.!.!.!.!.!.& & & !.!.!.!.",
"!.!.!.!.& & & !.!.!.!.!.!.!.!.!.!.4.5.T R 4.4.4.5.5.T 4.4.R 5.5.5.!.!.!.!.!.!.!.!.!.!.& & * !.!.!.!.",
"!.!.!.!.& & & !.!.!.!.!.!.!.!.!.5.8.4.T 4.4.5.T T 5.4.5.4.4.4.4.7.5.!.!.!.!.!.!.!.!.!.& & & !.!.!.!.",
"!.!.!.!.& & & !.!.!.!.!.!.!.!.!.8.T R R ) R 2.4.4.R 4.2.T ) ) R R 4.!.!.!.!.!.!.!.!.!.* & & !.!.!.!.",
"!.!.!.!.* & & !.!.!.!.!.!.!.!.,.1.>.D K Z :.,._ T T _ ,.:.Z N D >.1.,.!.!.!.!.!.!.!.!.& & * !.!.!.!.",
"!.!.!.!.& & & !.!.!.!.!.!.!.!.D A Z %.} &.A A B :.:.F A A &.} %.A A C !.!.!.!.!.!.!.!.& & > !.!.!.!.",
"!.!.!.!.> > & !.!.!.!.!.!.!.!.F S V d r.X C S S A A S S C X r.d V Z F !.!.!.!.!.!.!.!.& > > !.!.!.!.",
"!.!.!.!.i.u.u.!.!.!.!.!.!.!.!.H A S [ r.o C A B V S S Z C d r.[ S S H !.!.!.!.!.!.!.!.u.u.i.!.!.!.!.",
"!.!.!.!.a.u.u.!.!.!.!.!.!.!.F Z S S $.{ $.A A A A A A Z Z $.{ $.Z B A C !.!.!.!.!.!.!.u.y.a.!.!.!.!.",
"!.!.!.!.t.u.i.!.!.!.!.!.!.<.D S S A A N S >.,.` ` ' ` ,.;.B N A Z A S D <.!.!.!.!.!.!.i.y.t.!.!.!.!.",
"!.!.!.!.h.d.y.!.!.!.!.!.4.T R ( ,.;.>.' R T 4.4.Y 4.4.T T R ' >.:.` ( R 4.5.!.!.!.!.!.u.d.h.!.!.!.!.",
"!.!.!.T.W.!.!.!.!.!.!.4.7.4.4.4.4.4.2.4.4.4.4.5.4.4.5.4.4.4.4.4.2.4.4.4.4.7.5.!.!.!.!.!.!.T.T.!.!.!.",
"!.!.Y.W.!.!.!.!.!.!.!.5.5.5.4.T 4.5.T 5.5.T 5.5.T 5.R 4.4.T 5.R 4.5.T R 4.5.5.!.!.!.!.!.!.!.W.T.!.!.",
"!.!.Y.T.!.!.!.!.!.!.!.4.T T 5.5.4.4.5.T T 5.T 4.5.T 4.4.4.5.T 4.5.5.5.4.4.4.4.!.!.!.!.!.!.!.T.I.!.!.",
"!.!.Y.T.!.!.!.!.!.!.!.4.5.5.4.5.+.g T 3.4.T 4.4.T 4.4.5.T 5.5.T +.+.R T 5.5.5.!.!.!.!.!.!.!.T.T.!.!.",
"!.!.!.Y.T.!.!.!.!.!.!.!.7.4.R T g e.s ..4.3.5.5.4.R 4.5.5.4...s e.f T T T 7.!.!.!.!.!.!.!.T.T.!.!.!.",
"!.!.!.!.T.Q.Y.!.!.!.!.!.4.9.T 5.4.X.y.y.s +...R 5.5.T ..+.s p.y.X.T T T 9.4.!.!.!.!.!.T.Q.T.!.!.!.!.",
"!.!.!.!.!.!.Y.T.!.!.!.!.!.5.5.7.E 5.T g a.y.y.y.y.y.y.y.y.a.g O.T T 8.8.4.!.!.!.!.!.Y.T.!.!.!.!.!.!.",
"!.!.!.!.!.!.!.W.T.!.!.!.!.!.!.5.R 8.T 5.T ..+.g f f g +...T 3.5.8.T 4.!.!.!.!.!.!.Y.W.!.!.!.!.!.!.!.",
"!.!.!.!.!.!.!.W.T.!.!.!.!.!.!.!.Y Y T T E 5.3.3.3.3.3.3.5.E 5.4.Y Y !.!.!.!.!.!.!.T.W.!.!.!.!.!.!.!.",
"!.!.!.!.!.!.W.T.!.!.!.!.!.!.!.w w e u w.q.Y T 4.O.8.O.R E q.w.u e w w !.!.!.!.!.!.!.T.W.!.!.!.!.!.!.",
"!.!.!.!.!.P.I.T.!.!.!.!.!.I 9 p p 7 b A.F.m.8.5.E E E 0.n.F.A.b 7 p p 9 I !.!.!.!.!.T.I.P.!.!.!.!.!.",
"!.!.!.!.s.u.. !.!.!.M M G W h e e 7 n.K.G.K.A.N.#.#.N.A.K.K.K.n.7 e e 9 W G D M !.!.!.. i.s.!.!.!.!.",
"!.!.!.!.u.i.y.!.2 ! J Z A ! 9 e w e A.K.G.G.K.K.z.v.R.H.J.K.K.A.j w e 7 ! A S J ! 2 !.i.u.u.!.!.!.!.",
"!.!.!.!.i.i.u.q i P B S N ^ 7 w 7 b.J.J.J.J.J.K.z.z.K.J.J.J.J.K.b.6 e w -.Z S B P i e t.u.u.!.!.!.!.",
"!.!.!.j p.O X j e 9 =.S Z =.u 7 e B.K.J.J.J.G.K.z.z.K.J.J.J.K.K.B.e w e M A Z =.9 e x p.O o j !.!.!.",
"!.!.w x = % % e e 9 I Z Z D u 0 @.k.x.Z.K.K.K.K.z.z.K.K.K.K.Z.v.k.@.6 a M Z S I w w q % % = x w !.!.",
"!.!.w q & & & e w i e :.Z M r O c.Z.k.k.x.v.c.z.k.k.x.z.x.z.j.j.C.B.3 4 M Z M p i w e & & & q w !.!.",
"!.!.z q = & & q w w e !.: , * $ B.R.F.V.l.l.l.l.k.k.l.l.l.l.V.F.K.B.$ * < : !.e w p q & & & q p !.!.",
"!.!.l q & & & e p !.!.!.!.< $ ] S.K.G.K.K.K.K.E.z.z.K.K.K.K.K.G.K.S., & < !.!.!.!.p w & & & e p !.!.",
"!.!.i e & & & p i !.!.!.!.* $ ] A.K.G.G.G.G.G.K.z.z.K.K.G.G.K.G.H.A.] $ , !.!.!.!.w x & & & a w !.!.",
"!.!.!.q & & & e !.!.!.!.!.& + | J.G.G.K.G.H.G.K.l.l.K.G.K.G.G.K.H.F. .# * !.!.!.!.!.e & & & q !.!.!.",
"!.!.!.!.* & & !.!.!.!.!.!.; $ | A.G.K.K.G.G.K.B.@ O V.K.K.J.K.K.G.D. .= ; !.!.!.!.!.!.& & * !.!.!.!.",
"!.!.!.!.* & & !.!.!.!.!.!.!.* 4 l g.M.A.K.H.E.f.    f.K.K.K.A.M.b.x 4 * !.!.!.!.!.!.!.& & & !.!.!.!.",
"!.!.!.!.* & & !.!.!.!.!.!.!.- t w 6 0 k g.M.F.V.+ # B.F.M.g.b 7 6 w t - !.!.!.!.!.!.!.& * * !.!.!.!.",
"!.!.!.!.!.!.!.!.!.!.!.!.!.!.!.a e e e w 6 7 x c u q y k w 6 7 e j e p !.!.!.!.!.!.!.!.!.!.!.!.!.!.!.",
"!.!.!.!.!.!.!.!.!.!.!.!.!.!.5 h 9 p e w e e w 7 w w 7 w w e e e e w h 5 !.!.!.!.!.!.!.!.!.!.!.!.!.!.",
"!.!.!.!.!.!.!.!.!.!.!.!.!.!.;.W r 8 9 w w w p z z l l p e e w 9 9 u W =.!.!.!.!.!.!.!.!.!.!.!.!.!.!.",
"!.!.!.!.!.!.!.!.!.!.!.!.!.^ Z S C $.Q r w 9 e !.!.!.!.p 9 w y U =.C S H ^ !.!.!.!.!.!.!.!.!.!.!.!.!.",
"!.!.!.!.!.!.!.!.!.!.!.!.!.V J A A Z Z B ;.Q !.!.!.!.!.!.U =.B Z S Z Z G V !.!.!.!.!.!.!.!.!.!.!.!.!.",
"!.!.!.!.!.!.!.!.!.!.!.!.!.~ ;.:.B A A A G M !.!.!.!.!.!.M G A A A V M >.-.!.!.!.!.!.!.!.!.!.!.!.!.!.",
"!.!.!.!.!.!.!.!.!.!.!.!.!.8 9 u P / ! ;.M !.!.!.!.!.!.!.!.M =.! / I r w 8 !.!.!.!.!.!.!.!.!.!.!.!.!.",
"!.!.!.!.!.!.!.!.!.!.!.!.!.x e w 9 8 9 a y !.!.!.!.!.!.!.!.y a 9 8 9 w e v !.!.!.!.!.!.!.!.!.!.!.!.!.",
"!.!.!.!.!.!.!.!.!.!.!.!.!.w z v v v m w !.!.!.!.!.!.!.!.!.!.w m v v v z w !.!.!.!.!.!.!.!.!.!.!.!.!.",
"!.!.!.!.!.!.!.!.!.!.!.!.!.!.!.!.!.!.!.!.!.!.!.!.!.!.!.!.!.!.!.!.!.!.!.!.!.!.!.!.!.!.!.!.!.!.!.!.!.!.",
"!.!.!.!.!.!.!.!.!.!.!.!.!.!.!.!.!.!.!.!.!.!.!.!.!.!.!.!.!.!.!.!.!.!.!.!.!.!.!.!.!.!.!.!.!.!.!.!.!.!."
};
