/* XPM */
static char *result[] = {
/* columns rows colors chars-per-pixel */
"50 50 171 2 ",
"   c #D57B3E",
".  c #EF7E2E",
"X  c #E66E3A",
"o  c #C40056",
"O  c #C90057",
"+  c #CA0259",
"@  c #C51D53",
"#  c #CC1F56",
"$  c #D61E59",
"%  c #ED005E",
"&  c #EE105B",
"*  c #E71C5C",
"=  c #DA384D",
"-  c #CC2455",
";  c #D6245B",
":  c #D8215A",
">  c #EE295A",
",  c #E62359",
"<  c #EF3F54",
"1  c #EE395C",
"2  c #EC0064",
"3  c #ED1362",
"4  c #ED1D62",
"5  c #ED2261",
"6  c #ED2B60",
"7  c #ED3160",
"8  c #E25448",
"9  c #F05A4F",
"0  c #EF4455",
"q  c #EF4E54",
"w  c #EF425A",
"e  c #F04A54",
"r  c #F04554",
"t  c #F05C51",
"y  c #F05352",
"u  c #D67C40",
"i  c #D97E42",
"p  c #F16C4B",
"a  c #F27349",
"s  c #F27B4C",
"d  c #F06752",
"f  c #7FC23F",
"g  c #47BE45",
"h  c #54BF45",
"j  c #5DBF45",
"k  c #61BF45",
"l  c #64C045",
"z  c #6DC043",
"x  c #71C142",
"c  c #7EC240",
"v  c #FF9F00",
"b  c #FFA401",
"n  c #FFAA04",
"m  c #FDAD09",
"M  c #FFB303",
"N  c #FEB00A",
"B  c #FAAA1C",
"V  c #FDB611",
"C  c #FCBB12",
"Z  c #F48526",
"A  c #F7BE26",
"S  c #F7B52C",
"D  c #F7BE2D",
"F  c #F8BD29",
"G  c #F6AD34",
"H  c #F6AB3B",
"J  c #F4A03F",
"K  c #F6B233",
"L  c #F6B038",
"P  c #FBBE38",
"I  c #83C23F",
"U  c #8BC43D",
"Y  c #A8C737",
"T  c #B5C835",
"R  c #BBC834",
"E  c #F9CF01",
"W  c #F9CD0A",
"Q  c #FBC40E",
"!  c #F9D100",
"~  c #F9D10C",
"^  c #FBC317",
"/  c #F9CF16",
"(  c #FAC719",
")  c #F9CD1C",
"_  c #F7D013",
"`  c #F9D215",
"'  c #FAD813",
"]  c #F7D11F",
"[  c #F9D21E",
"{  c #FFDD19",
"}  c #CBCA2D",
"|  c #DDCE27",
" . c #C3CA31",
".. c #E5CE26",
"X. c #E9CF23",
"o. c #E1CE28",
"O. c #F8C424",
"+. c #F2CF23",
"@. c #F9CD21",
"#. c #F7C12B",
"$. c #F8C528",
"%. c #EED122",
"&. c #F5D120",
"*. c #F9D121",
"=. c #FFDB20",
"-. c #F9D22C",
";. c #FFC43A",
":. c #F9D434",
">. c #FAD63C",
",. c #FFE121",
"<. c #FFE03A",
"1. c #DC8245",
"2. c #DE8548",
"3. c #E28445",
"4. c #E78847",
"5. c #E1864A",
"6. c #E4894C",
"7. c #F38C44",
"8. c #F38443",
"9. c #F49341",
"0. c #F49E43",
"q. c #E78E51",
"w. c #EC9356",
"e. c #EF9659",
"r. c #F4975A",
"t. c #F69B5D",
"y. c #FA9A5C",
"u. c #F4A541",
"i. c #FABC5C",
"p. c #F79E61",
"a. c #F89E61",
"s. c #F7A262",
"d. c #F9A162",
"f. c #F7A768",
"g. c #FAAB6B",
"h. c #FFBC64",
"j. c #F9B474",
"k. c #F9B877",
"l. c #FABD7B",
"z. c #86C340",
"x. c #FAD745",
"c. c #FAD84B",
"v. c #FAD847",
"b. c #FADA54",
"n. c #FADA5D",
"m. c #FBDD64",
"M. c #FCDB65",
"N. c #FBDE72",
"B. c #FDE566",
"V. c #FFE864",
"C. c #FEE76B",
"Z. c #FBE173",
"A. c #FBE97E",
"S. c #FAC684",
"D. c #FACE8B",
"F. c #FBD18E",
"G. c #FBD785",
"H. c #FBD792",
"J. c #FBDA95",
"K. c #FCDE98",
"L. c #FCE584",
"P. c #FCE78A",
"I. c #FDEA95",
"U. c #FCE19B",
"Y. c #FDEB9C",
"T. c #FDEDA5",
"R. c #FDEEA9",
"E. c #FDF0A7",
"W. c #FDF0A8",
"Q. c #FFFAAE",
"!. c None",
/* pixels */
"!.!.!.!.!.!.!.!.!.!.!.!.!.5.1.1.1.5.!.!.!.!.!.!.!.!.!.!.!.!.!.!.!.!.!.!.!.!.!.!.!.!.!.!.!.!.!.!.!.!.",
"!.!.!.!.!.!.!.!.!.!.!.!.!.4.      i 4.1.1.!.!.!.!.!.!.!.!.!.!.!.!.!.!.!.!.!.!.!.!.!.!.!.!.!.!.!.!.!.",
"!.!.!.!.!.!.!.!.!.!.!.!.r.d.e.q.2.u     3.4.1.2.!.!.!.!.!.!.!.!.!.!.!.!.!.!.!.!.!.!.!.!.!.!.!.!.!.!.",
"!.!.!.!.!.!.!.!.!.!.!.!.s.g.d.d.p.r.q.1.u   1.3.1.5.!.!.!.!.!.!.!.!.!.!.!.!.!.!.!.!.!.!.!.!.!.!.!.!.",
"!.!.!.!.!.!.!.!.!.!.!.!.!.a.y.t.s.s.a.t.w.2.u   1.3.1.!.!.!.!.!.!.!.!.!.!.!.!.!.!.!.!.!.!.!.!.!.!.!.",
"!.!.!.!.!.!.!.!.!.!.!.!.!.!.l.g.r.r.t.a.d.s.e.5.    i 4.2.!.!.!.!.!.!.!.!.!.!.!.!.!.!.!.!.!.!.!.!.!.",
"!.!.!.!.!.!.!.!.!.!.!.!.!.A.E.U.J.S.g.t.t.t.d.a.w.2.u u 3.1.!.!.!.!.!.!.!.!.!.!.!.!.!.!.!.!.!.!.!.!.",
"!.!.!.!.!.!.!.!.!.!.!.!.!.Y.Q.T.W.T.T.H.k.s.t.a.d.t.q.i   i 3.2.!.!.!.!.!.!.!.!.!.!.!.!.!.!.!.!.!.!.",
"!.!.!.!.!.!.!.!.!.!.!.!.!.P.W.R.T.T.T.T.R.H.N.t.r.s.d.r.2.u u 2.1.!.!.!.!.!.!.!.!.!.!.!.!.!.!.!.!.!.",
"!.!.!.!.!.!.!.!.!.!.!.!.!.<.M.Z.I.R.R.T.T.R.R.H.j.r.t.d.t.6.    1.1.!.!.!.!.!.!.!.!.!.!.!.!.!.!.!.!.",
"!.!.!.!.!.!.!.!.!.!.!.!.] { E ! :.b.L.T.R.R.T.E.T.D.d.t.a.a.w.u   1.1.!.!.!.!.!.!.!.!.!.!.!.!.!.!.!.",
"!.!.!.!.!.!.!.!.!.!.!.!.*.*.*.*./ W W x.L.U.R.T.T.T.U.j.r.s.d.e.1.  1.1.!.!.!.!.!.!.!.!.!.!.!.!.!.!.",
"!.!.!.!.!.!.!.!.!.!.!.!.,.[ [ *.[ *.*.) ! c.P.T.T.T.E.T.S.t.t.d.r.1.  u 1.!.!.!.!.!.!.!.!.!.!.!.!.!.",
"!.!.!.!.!.!.!.!.!.!.!.[ =.*.[ [ [ ` [ [ *.W _ m.Y.T.T.T.E.F.d.t.a.t.2.u i 1.!.!.!.!.!.!.!.!.!.!.!.!.",
"!.!.!.!.!.!.!.!.!.!.!.) ) [ @.[ ) #.#.#.) *.*.! >.P.T.T.T.E.J.f.t.s.t.2.  i 1.!.!.!.!.!.!.!.!.!.!.!.",
"!.!.!.!.!.!.!.!.!.!.!.=.*.*.[ A p % 2 2 t K [ @.` ~ Z.T.T.T.W.K.g.r.a.t.5.  i 1.!.!.!.!.!.!.!.!.!.!.",
"!.!.!.!.!.!.!.!.!.!.@.=.[ [ #.w 2 6 6 6 2 & K ' *.*.E n.Y.T.T.E.U.g.r.d.r.2.u i 1.!.!.!.!.!.!.!.!.!.",
"!.!.!.!.!.!.!.!.!.!.) =.[ [ a 2 6 5 5 4 6 2 d ) *.*.-.E b.Y.T.T.E.U.g.t.s.e.1.u 3.1.!.!.!.!.!.!.!.!.",
"!.!.!.!.!.!.!.!.!.!.{ *.[ [ w 3 5 5 4 5 5 5 > S [ @.*.*.E x.I.R.T.E.J.f.a.s.e.u u 3.2.!.!.!.!.!.!.!.",
"!.!.!.!.!.!.!.!.!.*.=.[ ] O.1 3 5 5 4 5 5 > % G ' *.*.*.*.E x.Y.W.T.W.H.s.t.d.w.u u 3.!.!.!.!.!.!.!.",
"!.!.!.!.!.!.!.!.!.*.[ *.[ [ w 3 5 5 4 5 5 4 1 S [ *.] *.*.-.E v.Y.T.T.E.F.t.a.a.6.u 1.1.!.!.!.!.!.!.",
"!.!.!.!.!.!.!.!.!.,.[ [ [ [ 8.2 7 5 5 5 7 2 s ` *.[ ] *.*.*.*.E b.T.T.T.E.S.r.a.a.1.  3.1.!.!.!.!.!.",
"!.!.!.!.!.!.!.!.) =.*.[ *.*.@.t 2 4 5 4 2 q A [ [ [ *.` E / *.+.! n.T.T.T.T.j.t.a.e.u u 4.!.!.!.!.!.",
"!.!.!.!.!.!.!.!.*.[ [ *.W / [ @.7.e > < 7.F [ *.*.*.E m.P.>.~ *.-.! Z.T.T.T.U.s.a.s.q.  i 1.!.!.!.!.",
"!.!.!.!.!.!.!.!.=.*.*.` n.c.~ [ ' O.#.O.` [ @.*.*.*._ v.Y.I.x./ *.*.[ P.R.T.T.D.r.a.t.1.  3.5.!.!.!.",
"!.!.!.!.!.!.!.[ [ *.*.! P.I.[ ) *.[ [ [ *.*.[ [ *.` *.E >.P.b.E @.*._ >.Y.R.T.T.j.t.s.w.  1.1.!.!.!.",
"!.!.!.!.!.!.!.*.*.[ *.~ c.T.Z.! *.[ *.[ [ [ [ X.Y R o.*.` E / *.] [ *.! m.R.T.E.J.a.d.a.5.  3.2.!.!.",
"!.!.!.!.!.!.@.=.[ ] *.*.! n.n._ *.*.@.[ [ *.[  .g h z } @.*.*.[ *.*.*.*.[ P.R.T.T.l.r.d.w.u 1.1.!.!.",
"!.!.!.!.!.!.*.{ [ [ *.[ *.! E ) ) / ] *.[ ] `  .h x k z &.[ *.[ [ *.) *.E b.T.T.W.J.s.a.t.2.u 4.!.!.",
"!.!.!.!.!.!.*.*.] *.[ @.[ $.0.p p 9.#.` *.*.[  .h z z j | *.*.[ [ *.*.] *.E L.R.T.E.j.t.s.w.u 3.1.!.",
"!.!.!.!.!.[ =.[ [ [ ] [ #.0 2 2 2 2 > K ` *.[ X.I h z j ..[ ) *.[ [ *.[ @.` v.T.T.T.H.t.a.a.1.  2.!.",
"!.!.!.!.!.*.=.*.[ *.[ @.y 2 1 5 6 7 2 > $.[ @.[ ..Y z I +.*.*.@.@.] [ ] *.*.~ P.T.T.T.g.t.a.q.u 4.!.",
"!.!.!.!.!.[ [ [ [ @.` H 2 7 5 4 5 4 7 2 9.` *.*.[ ) &.X.] ' ' ' ' *.&.] *.*.W n.T.T.R.S.t.d.r.u i 2.",
"!.!.!.!.!.=.[ *.[ *.` 8.2 6 5 5 5 4 5 2 p ] *.*.] [ @.{ A H 0.u.K ` *.] [ *.` :.Y.R.Y.G.r.a.a.2.  1.",
"!.!.!.!.*.=.*.*.*.[ ` J 2 6 5 4 5 5 5 2 a ) [ ` [ [ ` H w 2 2 2 & J ) [ *.[ *.W n.L.C.n.s.t.a.q.  1.",
"!.!.!.!.[ [ ] ) ] *.[ K 2 7 5 5 5 5 7 2 J ~ -.-.[ [ S & 2 7 7 7 4 2 J [ @.^ V b P B.B.C.h.a.s.w.  1.",
"!.!.!.[ =.) [ [ [ [ ] ] p 2 7 6 > 7 2 q $.! Z.P.~ ` s 2 7 5 5 4 5 5 , B n b b b ;.C.m.B.i.t.g.d.4.!.",
"!.!.!.*.=.*.[ [ @.[ [ [ O.a 2 2 2 2 9 D [ E A.P.~ $.w 4 5 5 5 4 $ - o Z n n N n m !.!.!.!.!.d.t.!.!.",
"!.!.!.[ [ *.[ [ ] %.&.*.[ ) K 9.J H @.[ @.! P.L.! $.w 4 , - # @ @ - O Z M m !.!.!.!.!.!.!.!.!.!.!.!.",
"!.!.[ =.*.) *.R c z U &.*.*.' ` [ ` [ @.*.` :.:.` C 8 + - @ # $ # - = !.!.!.!.!.!.!.!.!.!.!.!.!.!.!.",
"!.!.[ =.[ [ T h l k x X.[ ) *.*.*.*.] *.&.[ Q M m n . o ; : # # !.!.!.!.!.!.!.!.!.!.!.!.!.!.!.!.!.!.",
"!.!.[ [ [ &.I l z l c ] [ *.[ [ [ *.) ^ C m b b b n n X + !.!.!.!.!.!.!.!.!.!.!.!.!.!.!.!.!.!.!.!.!.",
"!.[ ,.*.[ o.x l k h R [ *.*.*.) ( V n b v b n b b m !.!.!.!.!.!.!.!.!.!.!.!.!.!.!.!.!.!.!.!.!.!.!.!.",
"!.*.[ [ [ X.U x I T &.[ ] ( C n b b b M m n m !.!.!.!.!.!.!.!.!.!.!.!.!.!.!.!.!.!.!.!.!.!.!.!.!.!.!.",
"!.=.[ *.[ [ X.| %.[ ( C m b b b n M m n !.!.!.!.!.!.!.!.!.!.!.!.!.!.!.!.!.!.!.!.!.!.!.!.!.!.!.!.!.!.",
"*.=.] [ [ ] [ ( C m b v b n n n m !.!.!.!.!.!.!.!.!.!.!.!.!.!.!.!.!.!.!.!.!.!.!.!.!.!.!.!.!.!.!.!.!.",
"C @.) ) ( C m b b b m n n N !.!.!.!.!.!.!.!.!.!.!.!.!.!.!.!.!.!.!.!.!.!.!.!.!.!.!.!.!.!.!.!.!.!.!.!.",
"n b M m b b b n M n n !.!.!.!.!.!.!.!.!.!.!.!.!.!.!.!.!.!.!.!.!.!.!.!.!.!.!.!.!.!.!.!.!.!.!.!.!.!.!.",
"m n b b b M m n !.!.!.!.!.!.!.!.!.!.!.!.!.!.!.!.!.!.!.!.!.!.!.!.!.!.!.!.!.!.!.!.!.!.!.!.!.!.!.!.!.!.",
"!.m n n m !.!.!.!.!.!.!.!.!.!.!.!.!.!.!.!.!.!.!.!.!.!.!.!.!.!.!.!.!.!.!.!.!.!.!.!.!.!.!.!.!.!.!.!.!."
};
