/* XPM */
static char *result[] = {
/* columns rows colors chars-per-pixel */
"50 50 228 2 ",
"   c #1C012B",
".  c #1C022C",
"X  c #21102F",
"o  c #251933",
"O  c #251834",
"+  c #291F37",
"@  c #282036",
"#  c #292037",
"$  c #2A2137",
"%  c #2A2138",
"&  c #2C2339",
"*  c #2B2438",
"=  c #2C253A",
"-  c #2D253B",
";  c #2D273B",
":  c #2E273B",
">  c #2D253C",
",  c #2F263D",
"<  c #2F273D",
"1  c #2F293C",
"2  c #2F283D",
"3  c #2F293D",
"4  c #2F2A3D",
"5  c #2F293E",
"6  c #302B3D",
"7  c #30293E",
"8  c #30283F",
"9  c #302A3E",
"0  c #312B3E",
"q  c #302A3F",
"w  c #312B3F",
"e  c #312C3E",
"r  c #312C3F",
"t  c #312D3F",
"y  c #312C40",
"u  c #322C40",
"i  c #322D40",
"p  c #322C41",
"a  c #322E40",
"s  c #332E40",
"d  c #332F40",
"f  c #332E41",
"g  c #332F41",
"h  c #332E42",
"j  c #332F42",
"k  c #342E42",
"l  c #342F42",
"z  c #333041",
"x  c #333042",
"c  c #343041",
"v  c #343042",
"b  c #343142",
"n  c #353142",
"m  c #343043",
"M  c #353043",
"N  c #353143",
"B  c #353243",
"V  c #363145",
"C  c #363344",
"Z  c #373245",
"A  c #373346",
"S  c #373545",
"D  c #373446",
"F  c #383446",
"G  c #383546",
"H  c #383547",
"J  c #393547",
"K  c #3A3549",
"L  c #393648",
"P  c #3A3649",
"I  c #3C394A",
"U  c #3C394B",
"Y  c #3D3A4B",
"T  c #3D3C4B",
"R  c #3E3C4B",
"E  c #3D3A4C",
"W  c #3E3B4D",
"Q  c #3D3C4C",
"!  c #3E3C4D",
"~  c #3F3C4E",
"^  c #3F3D4E",
"/  c #414051",
"(  c #424151",
")  c #424251",
"_  c #424252",
"`  c #434352",
"'  c #444453",
"]  c #454555",
"[  c #464554",
"{  c #464555",
"}  c #464655",
"|  c #464756",
" . c #484857",
".. c #494958",
"X. c #494A58",
"o. c #4B4B5A",
"O. c #494C5A",
"+. c #4C4C5B",
"@. c #4E4E5C",
"#. c #4E4F5D",
"$. c #4D4F5E",
"%. c #4D505E",
"&. c #4D505F",
"*. c #4E515F",
"=. c #515360",
"-. c #515362",
";. c #515462",
":. c #515463",
">. c #535463",
",. c #525763",
"<. c #555965",
"1. c #555A65",
"2. c #565A65",
"3. c #565966",
"4. c #575A66",
"5. c #5A5D6B",
"6. c #5B606D",
"7. c #5C616D",
"8. c #5C636D",
"9. c #5F6570",
"0. c #606671",
"q. c #646A75",
"w. c #666F78",
"e. c #676E79",
"r. c #68707A",
"t. c #6D767F",
"y. c #6D7580",
"u. c #707A82",
"i. c #707B83",
"p. c #717D84",
"a. c #79868C",
"s. c #7A878D",
"d. c #7B858E",
"f. c #7B858F",
"g. c #7A888E",
"h. c #7B888E",
"j. c #7B898E",
"k. c #7B898F",
"l. c #7C898F",
"z. c #7C8690",
"x. c #7C8A90",
"c. c #7D8A90",
"v. c #7C8B90",
"b. c #7D8B90",
"n. c #7D8B91",
"m. c #7E8A91",
"M. c #7E8B91",
"N. c #7E8A92",
"B. c #7E8B92",
"V. c #7F8C92",
"C. c #7F8C93",
"Z. c #7E8D93",
"A. c #7F8D93",
"S. c #808B93",
"D. c #808D93",
"F. c #818E93",
"G. c #808E94",
"H. c #818F94",
"J. c #818E95",
"K. c #828E94",
"L. c #828E95",
"P. c #828F95",
"I. c #838F95",
"U. c #829096",
"Y. c #839196",
"T. c #839197",
"R. c #839298",
"E. c #859299",
"W. c #86949A",
"Q. c #88959D",
"!. c #89959D",
"~. c #8A969E",
"^. c #8A979F",
"/. c #8B98A0",
"(. c #8B99A0",
"). c #8C99A1",
"_. c #8D9AA2",
"`. c #8D9BA2",
"'. c #909EA6",
"]. c #919FA6",
"[. c #92A0A7",
"{. c #93A0A8",
"}. c #92A1A8",
"|. c #93A1A8",
" X c #94A2AA",
".X c #95A3AB",
"XX c #95A4AB",
"oX c #96A5AB",
"OX c #97A6AD",
"+X c #97A6AE",
"@X c #97A7AE",
"#X c #99A5AC",
"$X c #98A6AD",
"%X c #99A6AD",
"&X c #98A7AD",
"*X c #99A7AD",
"=X c #98A6AE",
"-X c #99A6AE",
";X c #98A7AE",
":X c #99A6AF",
">X c #98A7AF",
",X c #99A7AF",
"<X c #98A8AF",
"1X c #99A8AF",
"2X c #99A9AF",
"3X c #99A8B0",
"4X c #99A9B0",
"5X c #9AA9B0",
"6X c #9BAAB1",
"7X c #9BABB1",
"8X c #9BABB2",
"9X c #9CABB2",
"0X c #9CACB3",
"qX c #9DACB3",
"wX c #9DACB4",
"eX c #9DADB4",
"rX c #9EADB5",
"tX c #9EAEB5",
"yX c #9FAEB6",
"uX c #9FAFB6",
"iX c #A0AFB7",
"pX c #A0B0B7",
"aX c #A0B0B8",
"sX c #A1B1B8",
"dX c #A2B2B9",
"fX c #A3B3BA",
"gX c #A3B3BB",
"hX c None",
/* pixels */
"hXhXhXhXhXhXhXhXhXhXhXhXhXhXhXhXhXhXhXhXhXhXhXhXhXhXhXhXhXhXhXhXhXhXhXhXhXhXhXhXhXhXhXhXhXhXhXhXhXhX",
"hXhXhXhXhXhXhXhXhXhXhXhXhXhXhXhXhXhXhXhXhXhXhXhXhXhXhXhXhXhXhXhXhXhXhXhXhXhXhXhXhXhXhXhXhXhXhXhXhXhX",
"hXhXhXhXhXhXhXhXhXhXhXhXhXhXhXhXhXhXhXhXhXhXhXhXhXhXhXhXhXhXhXhXhXhXhXhXhXhXhXhXhXhXhXhXhXhXhXhXhXhX",
"hXhXhXhXhXhXhXhXhXhXhXhXhXhXhXhXhXhXhXhXhXhXhXhXhXhXhXhXhXhXhXhXhXhXhXhXhXhXhXhXhXhXhXhXhXhXhXhXhXhX",
"hXhXhXhXhXhXhXhXhXhXhXhXhXhXhXhXhXhXhXhXhXhXhXhXhXhXhXhXhXhXhXhXhXhXhXhXhXhXhXhXhXhXhXhXhXhXhXhXhXhX",
"hXhXhXhXhXhXhXhXhXhXhXhXhXhXhXhXhXhXhXhXhXhXhXhXhXhXhXhXhXhXhXhXhXhXhXhXhXhXhXhXhXhXhXhXhXhXhXhXhXhX",
"hXhXhXhXhXhXhXhXhXhXhXhXhXhXhXhXhXhXhXhXhXhXhXhXhXhXhXhXhXhXhXhXhXhXhXhXhXhXhXhXhXhXhXhXhXhXhXhXhXhX",
"hXhXhXhXhXhXhXhXhXhXhXhXhXhXhXhXhXhXhXhXhXhXhXhXhXhXhXhXhXhXhXhXhXhXhXhXhXhXhXhXhXhXhXhXhXhXhXhXhXhX",
"hXhXhXhXhXhXhXhXhXhXhXhXhXhXhXhXhXhXhXhXhXhXhXhXhXhXhXhXhXhXhXhXhXhXhXhXhXhXhXhXhXhXhXhXhXhXhXhXhXhX",
"hXhXhXhXhXhXhXhXhXhXhXhXhXhXhXhXhXhXhXhXhXhXhXhXhXhXhXhXhXhXhXhXhXhXhXhXhXhXhXhXhXhXhXhXhXhXhXhXhXhX",
"hXhXhXhXhXhXhXhXhXhXhXhXhXhXhXhXhXhXhXhXhXhXhXhXhXhXhXhXhXhXhXhXhXhXhXhXhXhXhXhXhXhXhXhXhXhXhXhXhXhX",
"hXhXhXhXhXhXhXhXhXhXhXhXhXhXhXhXhXhXhXhX,X#X&X;X;X=X;X+X;X+XhXhXhXhXhXhXhXhXhXhXhXhXhXhXhXhXhXhXhXhX",
"hXhXhXhXhXhXhXhXhXhXhXhXhXhXhX%X;X>XpXgXsXpXuXtXeXwXrXyXiXaXfXdX,X=XoXhXhXhXhXhXhXhXhXhXhXhXhXhXhXhX",
"hXhXhXhXhXhXhXhXhXhXhX>X>X+XdXdXeX4X<X@X;X;X;X$X;X;X$X;X;X;X@X;X1X0XsXeXJ.x.I.hXhXhXhXhXhXhXhXhXhXhX",
"hXhXhXhXhXhXhXhXhX:X;XeXuX5X@X@X;X;X;X;X;X;X;X;X;X;X;X;X;X;X;X;X;X;X@X5X`.V.U.l.C.hXhXhXhXhXhXhXhXhX",
"hXhXhXhXhXhXhX=XtX0X3X;X;X;X;X;X;X;X;X;X;X;X;X;X;X;X;X;X;X;X;X;X;X;X;X;XOXP.a.l.c.T.K.hXhXhXhXhXhXhX",
"hXhXhXhXhX;X&XtX;X;X;X;X;X;X;X;X;X;X;X;X;X;X;X;X;X;X;X;X;X;X;X;X;X;X;X$X5X`.s.h.k.g.G.m.J.hXhXhXhXhX",
"hXhXhXhX*XyX3X;X;X;X;X;X;X;X;X;X;X;X;X;X;X;X;X;X;X;X;X;X;X;X;X;X;X;X;X;X;XXXD.s.h.h.h.s.T.Z.hXhXhXhX",
"hXhXhX;XuX;X;X;X;X;X;X;X;X;X;X;X;X;X;X;X;X;X;X;X;X;X;X;X;X;X;X;X;X;X;X;XOX5XE.a.h.h.h.g.h.D.M.hXhXhX",
"hXhX@XuX<X;X;X;X;X;X;X;X;X;X;X;X;X;X;X;X;X;X;X;X;X;X;X;X;X;X;X;X;X;X;X;X;X3X(.s.h.h.h.h.h.h.A.B.hXhX",
"hX@XfX;X;X;X;X;X;X;X;X;X;X;X=XOXOX;X1X1X2X5X5X5X5X5X5X5X5X2X1X1X;XOXOX=X;X1X}.l.h.h.h.h.h.h.g.U.L.hX",
"hX;X1X;X;X;X;X;X;X;X;XOXOXOX1X8X9XOX.X X|.[.].'.^.^.'.].[.|. XXXOX8X8X1XOXOXOXc.s.h.h.h.h.h.h.g.R.hX",
"-XpX;X;X;X;X;X;X;X;XOX5X0XqX{.!.N.e.5.-. .^ V - % % - V ^  .-.5.e.N.!.{.qX0X5XV.s.h.h.h.h.h.h.h.n.U.",
"$X8X;X;X;X;X;XOX;X5X9X).d.t.<.V   o * ; 4 t g b b b b g t 4 ; * o   V <.t.d._.W.j.h.h.h.h.h.h.h.h.F.",
";X1X;X;X;XOX;X5X5XQ.9.` < . @ z S C B N v v g g g g g g v v N B C S z @ . , ' 2.u.x.c.h.s.h.h.h.h.x.",
";X1X;X;XOX7X;X~.0.m # : b S C v g g g g g g g g g g g g g g g g g g v C S b : = M ,.i.h.b.s.h.h.h.v.",
"$X8X;X;X6X/.q.8 $ a n b c g g g g g g g g g g g g g g g g g g g g g g g g c b v a ; p 1.p.b.h.h.h.H.",
"-XiX;X5Xf.I X B N g g g g g g g g g g g g g g g g g g g g g g g g g g g g g g g g v b + L w.l.h.M.Y.",
"hX1X6Xy.> 4 G g g g g g g g g g g g g g g g g g g g g g g g g g g g g g g g g g g g g C 0 9 8.l.U.hX",
"hXOXz.O d B g g g g g g g g g g g g g g g g g g g g g g g g g g g g g g g g g g g g g g b g & r.S.hX",
"hXhX_ u v g g g g g g g g g g g g g g g g g g g g g g g g g g g g g g g g g g g g g g g g v q } hXhX",
"hXhXhXY m a c g g g g g g g g g g g g g g g g g g g g g g g g g g g g g g g g g g g g v a l T hXhXhX",
"hXhXhXhX/ A e N g g g g g g g g g g g g g g g g g g g g g g g g g g g g g g g g g g m 6 Z ( hXhXhXhX",
"hXhXhXhXhX} E 5 a g g g g g g g g g g g g g g g g g g g g g g g g g g g g g g g g a 2 ! O.hXhXhXhXhX",
"hXhXhXhXhXhXhX;.U i s s j c g g g g g g g g g g g g g g g g g g g g g g c j s a i U =.hXhXhXhXhXhXhX",
"hXhXhXhXhXhXhXhXhX+.D H f 1 t b c g g g g g g g g g g g g g g g g c b t 1 f J F o.hXhXhXhXhXhXhXhXhX",
"hXhXhXhXhXhXhXhXhXhXhX{ R ) W 7 3 t s v b v v c c c c v x b v s t 4 9 W ) Q ] hXhXhXhXhXhXhXhXhXhXhX",
"hXhXhXhXhXhXhXhXhXhXhXhXhXhX@.*.| ~ K h y w w w r r w w r u k P ^ [ #.%.hXhXhXhXhXhXhXhXhXhXhXhXhXhX",
"hXhXhXhXhXhXhXhXhXhXhXhXhXhXhXhXhXhXhXhX7.4.>.&.X...$.:.3.6.hXhXhXhXhXhXhXhXhXhXhXhXhXhXhXhXhXhXhXhX",
"hXhXhXhXhXhXhXhXhXhXhXhXhXhXhXhXhXhXhXhXhXhXhXhXhXhXhXhXhXhXhXhXhXhXhXhXhXhXhXhXhXhXhXhXhXhXhXhXhXhX",
"hXhXhXhXhXhXhXhXhXhXhXhXhXhXhXhXhXhXhXhXhXhXhXhXhXhXhXhXhXhXhXhXhXhXhXhXhXhXhXhXhXhXhXhXhXhXhXhXhXhX",
"hXhXhXhXhXhXhXhXhXhXhXhXhXhXhXhXhXhXhXhXhXhXhXhXhXhXhXhXhXhXhXhXhXhXhXhXhXhXhXhXhXhXhXhXhXhXhXhXhXhX",
"hXhXhXhXhXhXhXhXhXhXhXhXhXhXhXhXhXhXhXhXhXhXhXhXhXhXhXhXhXhXhXhXhXhXhXhXhXhXhXhXhXhXhXhXhXhXhXhXhXhX",
"hXhXhXhXhXhXhXhXhXhXhXhXhXhXhXhXhXhXhXhXhXhXhXhXhXhXhXhXhXhXhXhXhXhXhXhXhXhXhXhXhXhXhXhXhXhXhXhXhXhX",
"hXhXhXhXhXhXhXhXhXhXhXhXhXhXhXhXhXhXhXhXhXhXhXhXhXhXhXhXhXhXhXhXhXhXhXhXhXhXhXhXhXhXhXhXhXhXhXhXhXhX",
"hXhXhXhXhXhXhXhXhXhXhXhXhXhXhXhXhXhXhXhXhXhXhXhXhXhXhXhXhXhXhXhXhXhXhXhXhXhXhXhXhXhXhXhXhXhXhXhXhXhX",
"hXhXhXhXhXhXhXhXhXhXhXhXhXhXhXhXhXhXhXhXhXhXhXhXhXhXhXhXhXhXhXhXhXhXhXhXhXhXhXhXhXhXhXhXhXhXhXhXhXhX",
"hXhXhXhXhXhXhXhXhXhXhXhXhXhXhXhXhXhXhXhXhXhXhXhXhXhXhXhXhXhXhXhXhXhXhXhXhXhXhXhXhXhXhXhXhXhXhXhXhXhX",
"hXhXhXhXhXhXhXhXhXhXhXhXhXhXhXhXhXhXhXhXhXhXhXhXhXhXhXhXhXhXhXhXhXhXhXhXhXhXhXhXhXhXhXhXhXhXhXhXhXhX",
"hXhXhXhXhXhXhXhXhXhXhXhXhXhXhXhXhXhXhXhXhXhXhXhXhXhXhXhXhXhXhXhXhXhXhXhXhXhXhXhXhXhXhXhXhXhXhXhXhXhX"
};
