/* XPM */
static char *result[] = {
/* columns rows colors chars-per-pixel */
"50 50 117 2 ",
"   c #000000",
".  c #020B07",
"X  c #0A0A07",
"o  c #120606",
"O  c #1A0707",
"+  c #1C0807",
"@  c #1A0E0A",
"#  c #17130D",
"$  c #1D120D",
"%  c #240B0A",
"&  c #290F0A",
"*  c #23140E",
"=  c #2A130E",
"-  c #261410",
";  c #2A1611",
":  c #291911",
">  c #301711",
",  c #331D14",
"<  c #3B1C15",
"1  c #4C1412",
"2  c #5B1616",
"3  c #561915",
"4  c #5D1917",
"5  c #5F1C18",
"6  c #641F1A",
"7  c #462017",
"8  c #462118",
"9  c #4A2119",
"0  c #4F281E",
"q  c #5A261D",
"w  c #51291E",
"e  c #5A281F",
"r  c #66211C",
"t  c #6A231E",
"y  c #73241E",
"u  c #562B20",
"i  c #5D2C21",
"p  c #6B2620",
"a  c #602E23",
"s  c #6D2A22",
"d  c #762620",
"f  c #732A22",
"g  c #7A2B23",
"h  c #633125",
"j  c #693226",
"k  c #713427",
"l  c #733529",
"z  c #7D3A2D",
"x  c #852F27",
"c  c #8B2E29",
"v  c #833329",
"b  c #8D332C",
"n  c #85392D",
"m  c #893B2F",
"M  c #91362E",
"N  c #94382F",
"B  c #823E30",
"V  c #8E3E31",
"C  c #933D31",
"Z  c #9B3A30",
"A  c #A53631",
"S  c #A43E33",
"D  c #A93F35",
"F  c #8B4132",
"G  c #954334",
"H  c #9A4335",
"J  c #9E4938",
"K  c #A04637",
"L  c #AB4136",
"P  c #A34739",
"I  c #A34D3C",
"U  c #AC4B3C",
"Y  c #B24337",
"T  c #B34439",
"R  c #B9463B",
"E  c #B14E3E",
"W  c #BF493C",
"Q  c #A9513F",
"!  c #C44A3E",
"~  c #AD5340",
"^  c #B65644",
"/  c #BC5342",
"(  c #B75845",
")  c #BA5946",
"_  c #BE5B48",
"`  c #C74C40",
"'  c #CC4E41",
"]  c #D14F42",
"[  c #C25644",
"{  c #C65846",
"}  c #C95947",
"|  c #C55E4A",
" . c #CB5C49",
".. c #D25143",
"X. c #D95245",
"o. c #C7604B",
"O. c #CC624D",
"+. c #D1654F",
"@. c #DC614E",
"#. c #D36650",
"$. c #DF6550",
"%. c #D66851",
"&. c #DA6A53",
"*. c #E1644F",
"=. c #E36651",
"-. c #E86752",
";. c #E56B54",
":. c #EA6B55",
">. c #F06B55",
",. c #E77057",
"<. c #E77058",
"1. c #EB7259",
"2. c #F2765C",
"3. c #F6785E",
"4. c #FA7A5F",
"5. c #FE7B61",
"6. c None",
/* pixels */
"6.                    6.6.=                                             = 6.6.                    6.",
"  s P G H H I I I Q # x W   k H H H J I I I I I I I I I I I I I I I Q z   W x . J Z H H J I I Q k   ",
"  J >.;.-.:.2.3.3.4.u y L   E -.;.;.:.3.2.2.3.2.3.2.2.2.2.2.3.3.3.2.3._   L d 0 :.=.=.-.2.3.2.5.Q   ",
"  G *.X.@.@.,.1.,.1.w d L   U @.@.X.$.1.<.1.1.1.1.1.1.1.1.1.1.1.,.1.1.^   L d 7 *.@.@.@.;.<.<.2.I   ",
"+ U *.@.@.$.1.1.1.1.w d L   U *.@.@.;.1.1.1.1.1.1.1.1.1.1.1.1.1.1.1.1.(   L d 7 =.@.@.$.:.1.<.3.I   ",
"6.-.*.@.@.$.,.1.1.2.w d L   U *.@.@.=.1.1.1.1.1.1.1.1.1.1.1.1.1.1.1.2.(   L d 9 =.@.@.$.:.1.1.2.I   ",
"6.=.@.@.@.=.1.1.1.2.w d L   U *.@.@.=.1.1.1.1.1.1.1.1.1.1.1.1.1.1.1.1.(   L g 7 =.@.@.@.,.1.1.3.I   ",
"  K =.@.@.$.1.1.1.2.w d L   U *.@.@.=.1.1.1.1.1.1.1.1.1.1.1.1.1.1.1.2.)   L y 9 *.@.@.=.:.1.<.3.I   ",
"  H =.X.X.;.1.1.1.1.u d L   U @.@.@.=.1.1.1.1.1.1.1.1.1.1.1.1.1.1.,.1.^   L g 9 ;.X.@.@.;.1.,.3.I   ",
"  J :.=.=.=.1.2.2.3.u d L   E -.=.=.;.2.1.2.2.1.2.2.2.1.1.2.1.2.2.2.2._   L y 0 ;.*.=.=.1.2.1.5.Q   ",
"  * a e u i a h i j   g T   > e q q u a h h h h h h h h h h h h a a h <   T g   i e e e a h i h :   ",
"6.y 2 5 2 6 6 6 r r g R X.Z t r r r r 6 6 6 6 3 1 1 4 r 5 6 r r r r r t Z X.W g 6 r r r 6 r 6 6 d 6.",
"6.A c c c b N N C N S S Z S Z N C N M C N N N T ` ` T N N N N N N N N Z L Z Z L N N N N N N N M T 6.",
"%                                             & ! ! &                                             o ",
"  s U ^ / / o.o.o.| o.o.o.o.o.O.o.o.| O.| O.~   N Z   P / / / | o.o.o.o.o.o.o.o.o.o.o.o.O.o.| ( l   ",
"  J -.@.@.=.1.2.1.2.1.2.1.2.1.1.1.2.1.1.1.3.+.  b M   [ =.*.@.;.1.2.1.2.1.1.1.2.1.1.2.1.1.1.1.3.Q   ",
"  H =.@.@.$.<.1.1.1.1.1.1.1.1.1.1.1.1.1.1.1.O.  M M   / =.@.@.-.1.1.1.1.1.1.1.1.1.1.<.1.1.1.<.2.I   ",
"  H =.@.@.$.1.1.1.1.1.1.1.1.1.1.1.1.1.1.,.2.O.  M M   [ =.@.@.;.1.1.1.1.1.1.1.1.1.1.1.1.1.1.1.3.I   ",
"  H =.@.@.=.1.1.1.1.1.1.1.1.1.1.1.1.1.1.,.2.O.  M M   / *.@.@.;.1.1.1.1.1.1.1.1.1.1.1.1.1.1.<.3.I   ",
"  H =.@.@.$.1.1.1.1.1.1.1.1.1.1.1.1.1.1.1.2.O.  M M   [ =.@.@.;.1.1.1.1.1.1.1.1.1.1.1.1.1.1.<.3.I   ",
"  C =.@.X.;.1.1.1.1.1.1.1.1.1.1.1.1.1.1.,.1.O.  N M   / *.@.@.;.1.1.1.1.1.1.1.1.1.1.1.1.1.1.<.2.I   ",
"  J :.*.=.=.1.2.1.2.2.1.2.1.1.2.2.2.2.1.1.3.+.  M M   [ -.*.*.;.1.2.2.2.2.1.2.1.2.1.2.1.2.1.1.5.I   ",
"  n } { }  .#.%.#.%.#.#.%.%.#.#.+.#.#.#.#.%.(   M M   U } { { O.#.%.#.#.#.%.%.%.#.#.#.#.#.#.O.&.G   ",
"      % ; ; ; ; ; : - $ - $ - - * * * * * * $   T T       * * ; ; ; ; : $ - $ $ - - * * * * $ *     ",
"6.c t p 6 t f p f s d g s d f s s f f f f f f L ..] L f f g f s d s f f f f g f f s f s s f s p C 6.",
"6.c 6 t p p f f f s Z ` ' R g f f f s f s f s g f f f f s v ! ..b s f g R ..` Z s f f f f f f s Z 6.",
"    * @ @ $ $ $ $ *   v ! +   X = & ; ; ; - - $ $ $ # - . u +.-.j . -   + W v   * @ @ @ $ $ # *     ",
"  m  .{ [ } +.#.+.&.8 d L   G } { { | %.#.%.#.+.#.#.#.#.#.&.2.1.;.#.%.I   L d <  .[ { { O.+.#.$.G   ",
"  J -.$.=.=.1.5.2.3.w d L   E =.=.=.;.2.1.2.2.2.2.2.2.2.2.1.1.1.1.2.2.)   L d 9 -.=.=.=.1.2.1.3.I   ",
"  Z =.@.@.$.<.<.1.1.0 d L   U @.X.&.=.1.1.1.1.<.:.1.<.1.<.1.1.1.1.1.1.(   L d 8 *.X.@.$.<.1.,.3.I   ",
"  H =.@.@.$.<.1.1.2.w d L   U $.@.@.=.1.1.1.1.1.1.1.1.1.1.1.1.1.1.1.1.(   L d 9 =.@.@.$.:.1.<.3.I   ",
"  H =.@.@.=.<.1.1.2.w d L   U $.@.$.=.1.1.1.1.1.1.1.1.1.1.1.1.1.1.1.2.)   L d 8 =.@.@.$.:.1.<.3.I   ",
"  H =.@.X.;.1.1.1.1.w d L   U =.@.@.=.1.1.1.1.1.1.1.1.1.1.1.1.1.1.<.1.(   L d 9 -.@.@.$.:.1.1.2.I   ",
"  H =.@.@.$.1.1.<.5.w d L   U @.@.@.=.1.1.1.1.1.1.1.1.1.1.1.1.1.1.1.1.(   L d 9 =.@.@.@.,.1.<.3.I   ",
"  H -.$.$.=.1.1.1.5.0 d L   U =.@.@.-.2.1.1.2.1.2.1.2.1.1.2.2.1.1.1.3.)   L d 9 =.@.=.*.1.1.1.3.Q   ",
"  v [ / / [ | O.o.o.: f L   V [ / / ) o.O.o.o.o.o.o.o.o.o.o.o.o.o.| ^ F   L d = / / / / | o.o.O.F   ",
"%                     Z ` r                                             r ! Z                     o ",
"6.A x c c b N N N N K ` ' R N N N N N N N N Z L Z H S Z N N N N N N N N R ' ! K N N N N N N N N T 6.",
"6.y 2 6 2 6 6 6 6 6 4 1 1 3 6 r r 6 6 r 6 6 t b ..] b t r r r r r r r 6 3 1 1 6 6 6 r r 6 r 6 6 g 6.",
"  * a e e i a a h h h j j j h h h h h h h a 8   D D   < e e e i h h h h h j j h h h h a a h i j :   ",
"  J -.*.*.:.1.2.2.2.2.2.2.1.2.2.2.2.2.1.2.3.+.  M b   { -.@.*.,.2.1.2.2.2.2.1.2.2.2.2.1.2.2.1.4.Q   ",
"  H =.@.@.@.1.1.1.,.1.1.:.1.1.1.1.1.1.1.<.2.O.  M M   / =.@.@.;.1.1.1.1.1.1.1.1.1.,.1.1.1.1.<.3.I   ",
"  H =.@.@.=.1.1.1.1.1.1.1.1.1.1.1.1.1.1.1.1.O.  M M   [ *.@.@.;.1.1.1.1.1.1.1.1.1.1.1.1.1.1.1.3.I   ",
"  H =.@.@.$.1.1.1.1.1.1.1.1.1.1.1.1.1.1.,.2.O.  M M   [ =.@.@.;.1.1.1.1.1.1.1.1.1.1.1.1.1.1.1.2.I   ",
"  H =.@.@.$.1.1.1.1.1.1.1.1.1.1.1.1.1.1.,.2.O.  M M   [ =.@.@.;.1.1.1.1.1.1.1.1.1.1.1.1.1.1.,.3.I   ",
"  H =.@.@.=.,.1.1.1.1.1.1.1.1.1.1.1.1.1.1.2.O.  M b   / -.$.@.;.1.1.1.1.1.1.1.1.1.1.1.1.1.1.;.3.I   ",
"  H =.X.@.$.1.1.<.1.<.1.<.<.1.<.<.<.1.,.,.1.o.  N N   / *.X.@.=.<.1.1.<.<.1.<.1.1.<.<.<.1.<.<.2.I   ",
"  K >.;.=.$.1.2.3.2.3.2.3.3.3.3.3.3.2.3.2.5.%.  b b   } :.=.=.1.3.2.3.3.3.2.3.2.3.3.3.3.2.3.2.5.Q   ",
"  s P G U :.2.Q I I I I I I I I I I I I I Q F   Y Y   n H H H J I I I I I I I I I I I I I I I Q k   ",
"6.      = 6.6.                                  6.6.                                              6."
};
